<svg viewBox="0 0 92.5541 85.111809" xmlns="http://www.w3.org/2000/svg">
    <g transform="translate(-22.807769,-27.86528)">
        <path
                fill="#ff9955"
                d="m 45.243748,107.42084 c 1.236029,-2.11771 3.225356,-4.3784 4.10778,-6.61459 2.309872,-5.853533 2.899351,-16.086133 -0.363802,-21.695833 -1.710821,-2.94108 -4.138156,-2.37339 -6.654395,-4.1774 -4.233197,-3.03496 -6.647572,-10.18154 -4.88193,-15.13718 1.57927,-4.43255 5.225182,-4.01482 8.244956,-6.48495 3.269911,-2.67474 5.340432,-5.72211 9.336975,-7.59575 4.536416,-2.12675 9.148082,-2.04701 14.022918,-1.98212 6.542249,0.0871 11.179937,0.48974 16.933327,3.97242 2.47362,1.49734 5.24875,2.08625 6.63684,4.94665 1.49977,3.09052 1.69141,7.0017 2.53518,10.31874 1.12747,4.43233 4.4098,8.02546 1.00668,12.43542 -4.79713,6.21642 -15.63179,7.40812 -17.41023,15.61042 -0.80655,3.71985 2.23235,5.53046 4.37195,8.20208 2.50253,3.124803 4.16882,6.671433 4.97625,10.583343 3.78101,-1.08924 7.45886,-3.66235 10.58334,-5.98743 C 116.40462,90.632047 120.62484,65.582497 108.34198,47.360417 97.701547,31.574947 78.253517,26.023957 60.060416,28.386977 c -29.543135,3.83722 -46.593245,37.15465 -31.861471,62.89427 3.479707,6.07981 10.022094,14.073853 17.044803,16.139593 m 2.38125,-53.181253 c 4.568488,0.0413 4.543546,7.05434 2.996773,10.31874 -0.832731,1.75746 -2.025597,3.00765 -2.203023,5.02709 h 0.264583 c 1.371634,-3.11845 4.756978,-3.74586 6.41819,-6.35408 1.496594,-2.34977 0.342473,-5.82686 2.040311,-8.46259 5.718466,-8.87735 15.445255,-4.05865 23.026915,-1.5875 v 1.32292 c 3.15599,-0.88595 3.816,-4.40957 7.67292,-3.70417 v -0.26458 c -4.91924,-2.62306 -9.12608,-4.7625 -14.816667,-4.7625 v 0.26458 c 2.199955,0.64736 3.994277,2.39153 5.291667,4.23334 -8.992519,-6.931 -24.066007,-6.04767 -30.691669,3.96875 m 43.127089,-1.85209 1.32291,2.38125 -1.32291,-2.38125 m -23.018754,1.18103 c -4.277856,0.75616 -7.233708,2.39389 -7.748454,6.75647 -0.189378,1.60501 -0.272266,3.17079 0.941965,4.44137 1.154141,1.2077 2.870549,1.27707 4.425239,1.40213 3.456043,0.278 7.72656,2.61003 11.112501,2.03255 3.722933,-0.63495 3.169723,-6.09599 2.322043,-8.6698 -1.40811,-4.27546 -6.841834,-6.70714 -11.053294,-5.96272 m 21.960414,13.90022 c -0.95722,0 -1.96466,-0.0836 -2.91041,0.0872 -2.28992,0.41348 -3.67677,2.72172 -2.04298,4.6639 1.94551,2.31272 5.73145,2.49841 7.8044,0.24825 0.7145,-0.77558 1.17434,-1.82585 0.8944,-2.88265 -0.44517,-1.68051 -2.23315,-2.44073 -2.95166,-3.96875 l 3.96875,0.52916 -2.38125,-9.78958 -0.79375,0.52917 c -0.20778,-0.86992 -0.14238,-2.13149 -0.87786,-2.75077 -2.1976,-1.85041 -5.15262,1.50775 -5.38128,3.54452 -0.45243,4.02986 2.52705,6.927 4.67164,9.78958 m -40.745832,8.20208 c -0.785127,-2.3208 -1.780031,-4.63369 -1.18205,-7.14375 0.367379,-1.54209 1.613229,-2.55376 2.216905,-3.96875 0.722228,-1.69287 0.968701,-6.7443 0.279486,-8.45115 -1.255543,-3.10938 -8.724601,0.20197 -10.285472,1.6516 -5.935194,5.51223 1.033456,19.18944 8.971131,17.91205 m 20.637502,-17.62279 c 4.365278,-0.99598 6.421334,5.65389 2.116465,6.88795 -4.429943,1.26991 -6.853923,-5.80705 -2.116465,-6.88795 m 18.25625,5.45193 c 2.38764,-1.2693 2.32478,-4.44606 -0.52917,-5.02708 l -1.05833,1.5875 c -0.47105,-2.11985 2.02907,-2.64073 3.33546,-1.26249 1.6791,1.77145 0.67155,7.13256 -1.74796,4.70207 m -40.745836,-3.43958 c -3.095893,-1.26331 -6.027719,-1.11159 -7.14375,2.64583 -1.385963,-3.58832 5.387648,-5.72991 7.14375,-2.64583 M 69.85,58.472917 v 0.26458 l 0.79375,0.26459 c -0.845277,0.56884 -1.940361,1.06453 -2.241199,2.12728 -0.493336,1.74278 1.386451,3.31733 3.033928,2.70238 3.53204,-1.31838 1.375146,-5.28724 -1.586479,-5.35883 m 0.289489,1.78635 c 0.995446,-0.28538 1.154896,1.26253 0.215995,1.40947 -0.912541,0.14282 -1.048753,-1.17073 -0.215995,-1.40947 m 16.643848,1.65323 -0.26459,-1.05833 c 1.34897,-0.31558 1.55642,0.66071 0.26459,1.05833 m 5.55625,7.14375 c -0.83969,1.29522 -4.98115,1.29523 -5.82084,0 h 5.82084 m -2.91042,2.11667 c -0.21267,1.04271 -0.55548,1.54587 -1.5875,1.85208 l 1.5875,-1.85208 m 3.175,0 -1.05833,1.5875 -0.26459,-0.26459 1.32292,-1.32291 M 69.85,73.818747 c 1.972926,0.0841 3.178622,2.32369 4.349497,3.70397 1.673989,1.97337 3.60678,3.32525 6.23383,3.43978 v -0.26458 c -2.12776,-0.72593 -3.61683,-1.9772 -5.027076,-3.70417 l 5.291666,2.64583 -0.26459,-1.32291 c 1.31723,0.14679 2.02695,0.68791 2.64584,1.85208 l -1.85209,0.79375 c 2.39586,0.39852 3.5527,-1.21691 5.30209,-2.47516 2.32536,-1.67253 5.29289,-2.11888 6.33958,-5.19776 -5.21598,3.4353 -9.55074,4.85348 -15.61041,2.63175 -1.934111,-0.70912 -5.367045,-1.68602 -4.762503,-4.21925 -1.408236,0.0732 -2.802551,0.48548 -2.645834,2.11667 m -18.256252,6.35 1.312505,7.40833 -1.312505,12.435423 2.381251,-1.322913 -7.143751,9.789583 c 4.421177,2.58049 9.94406,4.49792 15.081251,4.49792 1.370698,-10.84572 -3.60968,-19.085063 -6.35,-29.104173 l 3.96875,1.32291 c -1.176919,-1.72512 -5.961878,-4.19192 -7.937501,-5.02708 m 19.314586,3.70417 v 0.26458 c 2.038292,1.5096 4.693371,1.5875 7.143743,1.5875 l -0.52916,2.91042 h 0.26458 l 2.39268,-3.33628 3.95732,-2.74914 c -2.64055,0.75486 -4.60255,1.38796 -7.40833,1.31904 -2.016132,-0.0495 -3.923832,-1.00849 -5.820833,0.004 m 7.672913,12.17083 c 1.98136,5.411843 5.02708,9.301493 5.02708,15.345843 3.4934,-0.51591 2.94921,-2.50116 1.93273,-5.29167 -1.32359,-3.6336 -3.76368,-7.801273 -6.95981,-10.054173 z" id="path1"  />
    </g></svg>