<svg version="1.1" viewBox="0 0 50.859 50.255" xml:space="preserve" xmlns="http://www.w3.org/2000/svg"><g transform="translate(-163.84 -138.92)"><path d="m187.38 139.1c-4.9692 0.65279-9.4079 1.7864-13.494 4.8881-2.5684 1.9497-4.7766 4.4184-6.4519 7.1705-11.127 18.279 5.2778 40.666 25.766 37.76 3.5914-0.50943 7.0359-1.8984 10.054-3.8942 7.6949-5.0884 12.216-14.038 11.332-23.282-1.2443-13.023-13.818-24.401-27.207-22.642m-7.1438 22.377c1.5797-0.24595 2.5528-2.9843 4.1731-2.4217 2.0676 0.71794 0.51765 7.6988-1.0265 8.4946-2.1503 1.1082-1.6008-3.1269-3.3351-2.3222-0.99213 0.46032-1.3668 3.4901-0.97381 4.3909 1.5152 3.4726 5.6864-2.0103 6.7422-2.6852 1.7379-1.111 1.9266 1.374 1.7422 2.4811-1.0206 6.1283-6.3319 3.9688-11.026 3.9688-1.2251 0-4.8131 0.60789-5.5373-0.61225-0.71497-1.2046 1.6722-2.7413 2.017-3.8859 1.1849-3.9326 1.2375-8.1853 2.1973-12.171-1.1379-0.61018-2.3004-2.2678-0.50038-3.0154 2.4683-1.0251 6.3105 0.0609 8.967-0.20477 1.1128-0.11126 2.5752-0.77784 3.666-0.32338 1.5597 0.64987 1.5384 4.7213 0.39484 5.7271-1.4154 1.245-2.4729-1.5665-3.5357-2.0995-3.3081-1.6591-3.8656 2.3722-3.9647 4.6784m16.404 4.7625c-0.0845 1.0686-0.57723 2.3544-0.40014 3.412 0.19303 1.1528 2.0652 1.7551 0.99626 3.0917-1.2885 1.6112-5.3852 0.95792-7.2107 0.90052-0.79995-0.0251-1.8366-0.11724-2.017-1.082-0.25957-1.3875 1.8085-2.3691 2.201-3.6766 1.1646-3.8797 1.4554-8.1883 2.1973-12.171-1.7755-0.62384-2.0069-2.6926 4e-3 -3.2881 2.4996-0.74021 9.3418-1.1049 11.637 0.15006 3.8638 2.1122 2.9955 8.16 0.25336 10.783-2.068 1.9783-4.9655 2.2188-7.6615 1.8798m0.79375-3.175c2.3552-0.37412 4.814-3.994 2.948-6.2342-1.217-1.461-2.0985 0.4396-2.3129 1.4719-0.12771 0.61509-0.24474 1.2324-0.3491 1.8519-0.16448 0.9763-0.27782 1.9201-0.28602 2.9104z" fill="#b84804"/></g></svg>